/* XPM */
static char *calmar[] = {
/* columns rows colors chars-per-pixel */
"153 44 110 2",
"   c #10006F",
".  c #BD0000",
"X  c #B67478",
"o  c #BC7474",
"O  c #DF1D1E",
"+  c #D42626",
"@  c #D62828",
"#  c #DF2021",
"$  c #DD2C2C",
"%  c #D33233",
"&  c #DB3131",
"*  c #DA3A3A",
"=  c #EE0F0F",
"-  c #E01E1E",
";  c #EB1111",
":  c #EC1718",
">  c #EA1B1B",
",  c #F40F0F",
"<  c #F80F0F",
"1  c #F21212",
"2  c #FD1010",
"3  c #E02020",
"4  c #CB4546",
"5  c #CE4B4C",
"6  c #C8595C",
"7  c #D84F4F",
"8  c #D35355",
"9  c #D95656",
"0  c #CC6364",
"q  c #CC676A",
"w  c #CB696C",
"e  c #C37A7C",
"r  c #C97C7E",
"t  c #D26161",
"y  c #D26768",
"u  c #D96060",
"i  c #80838E",
"p  c #838690",
"a  c #94969F",
"s  c #9599A6",
"d  c #999BA5",
"f  c #9B9EAC",
"g  c #9DA1AF",
"h  c #A3A6AF",
"j  c #A1A5B3",
"k  c #A5AAB7",
"l  c #A5A9B8",
"z  c #ACAEB5",
"x  c #ABAEBA",
"c  c #ADB1BE",
"v  c #B4B6BB",
"b  c #ADB2C0",
"n  c #B2B6C5",
"m  c #B3B8C6",
"M  c #B4B9C8",
"N  c #BCBDC1",
"B  c #B8BDCC",
"V  c #BEC0C3",
"C  c #BBC0CD",
"Z  c #BEC3D3",
"A  c #CB8184",
"S  c #CD9095",
"D  c #CC9A9E",
"F  c #D48D8E",
"G  c #D18E92",
"H  c #D49090",
"J  c #D39A9C",
"K  c #D89192",
"L  c #D89B9C",
"P  c #D1A2A7",
"I  c #D1A4A9",
"U  c #D1A9AD",
"Y  c #D9A3A3",
"T  c #DBA8A8",
"R  c #D8B4B6",
"E  c #C4C5C9",
"W  c #C8C8CC",
"Q  c #C1C5D3",
"!  c #C5C8D2",
"~  c #C5CADB",
"^  c #CCCED3",
"/  c #CACEDC",
"(  c #CDD1DC",
")  c #D4C3C6",
"_  c #D3C6CB",
"`  c #D5C9CC",
"'  c #D7CDD1",
"]  c #D9CED1",
"[  c #D4D4D9",
"{  c #DAD2D4",
"}  c #DBD4D8",
"|  c #DDD8DB",
" . c #CCD1E2",
".. c #D1D5E1",
"X. c #E1D7D8",
"o. c #E6DEDE",
"O. c #E1DFE6",
"+. c #E4E0E4",
"@. c #E3E4EA",
"#. c #E8E5E8",
"$. c #EAEAED",
"%. c #E6E9F1",
"&. c #EBEDF4",
"*. c #EEF0F5",
"=. c #F0EAEA",
"-. c #F1F2F5",
";. c #F5F6F8",
":. c #F7F8F8",
">. c #FEFEFE",
",. c None",
/* pixels */
",.,.i i i i i i i i i i i i i i i i i i i i i i i i i i d ,.,.,.,.,.,.,.,.,.,.,.,.,.,.,.,.,.,.,.,.,.,.,.,.,.,.,.,.,.,.,.,.,.,.,.,.,.,.,.,.,.,.,.,.,.,.,.,.,.,.,.,.,.,.,.,.,.,.,.,.,.,.,.,.,.,.,.,.,.,.,.,.,.,.,.,.,.,.,.,.,.,.,.,.,.,.,.,.,.,.,.,.,.,.,.,.,.,.,.,.,.,.,.,.,.,.,.,.,.,.,.,.,.,.,.,.,.,.,.,.,.,.,.,.",
",.p v W W W W [ [ [ [ [ [ [ [ [ [ [ [ [ [ [ [ [ [ [ ^ N a ,.,.,.,.,.,.,.,.,.,.,.,.,.,.,.,.,.,.,.,.,.,.,.,.,.,.,.,.,.,.,.,.,.,.,.,.,.,.,.,.,.,.,.,.,.,.,.,.,.,.,.,.,.,.,.,.,.,.,.,.,.,.,.,.,.,.,.,.,.,.,.,.,.,.,.,.,.,.,.,.,.,.,.,.,.,.,.,.,.,.,.,.,.,.,.,.,.,.,.,.,.,.,.,.,.,.,.,.,.,.,.,.,.,.,.,.,.,.,.,.,.,.,.,.",
",.d E V N N V ^ W ^ ^ ^ ^ W ^ ^ ^ ^ ^ ^ ^ ^ ^ ^ ^ ^ E N z ,.,.,.,.,.,.,.,.,.,.,.,.,.,.,.,.,.,.,.,.,.,.,.,.,.,.,.,.,.,.,.,.,.,.,.,.,.,.,.,.,.,.,.          ,.,.,.,.,.,.,.,.,.,.,.,.,.,.,.,.,.,.,.,.,.,.,.,.,.,.,.,.,.,.,.,.,.,.,.,.,.,.,.,.,.,.,.,.,.,.,.,.,.,.,.,.,.,.,.,.,.,.,.,.,.,.,.,.,.,.,.,.,.,.,.,.,.,.,.,.",
",.d n x c x x z c z c z v c c z z c z c z x c x c z x v h ,.,.,.,.,.,.,.,.,.,.,.,.,.                  ,.,.,.,.,.,.,.,.,.,.,.,.,.,.,.,.,.,.,.,.,.          ,.,.,.,.,.,.,.,.,.,.,.,.,.,.,.,.,.,.,.,.,.,.,.,.,.,.,.,.,.,.,.,.,.,.,.,.,.,.,.,.,.,.,.,.,.,.,.,.,.,.,.,.,.,.,.,.        ,.,.,.,.,.,.,.,.,.,.,.,.,.,.,.,.",
",.s x -.>.:.:.>.>.>.>.>.>.>.>.>.>.>.>.>.>.>.>.>.-.>.>.C j ,.,.,.,.,.,.,.,.,.,.,.                          ,.,.,.,.,.,.,.,.,.,.,.,.,.,.,.,.,.,.,.          ,.,.,.,.,.,.,.,.,.,.,.,.,.,.,.,.,.,.,.,.,.,.,.,.,.,.,.,.,.,.,.,.,.,.,.,.,.,.,.,.,.,.,.,.,.,.,.,.,.,.,.,.,.,.,.,.        ,.,.,.,.,.,.,.,.,.,.,.,.,.,.,.,.",
",.g x >.:.6 y :.>.:.:.:.>.;.>.>.>.>.>.>.:.>.>.T & =.>.W j ,.,.,.,.,.,.,.,.,.,.                            ,.,.,.,.,.,.,.,.,.,.,.,.,.,.,.,.,.,.,.          ,.,.,.,.,.,.,.,.,.,.,.,.,.,.,.,.,.,.,.,.,.,.,.,.,.,.,.,.,.,.,.,.,.,.,.,.,.,.,.,.,.,.,.,.,.,.,.,.,.,.,.,.,.,.,.,.        ,.,.,.,.,.,.,.,.,.,.,.,.,.,.,.,.",
",.g c >.H 2 2 t ;.J ] ;.:.;.:.>.:.>.:.:.o :.Y 1 < 7 ;.! k ,.,.,.,.,.,.,.,.,.                              ,.,.,.,.,.,.,.,.,.,.,.,.,.,.,.,.,.,.,.          ,.,.,.,.,.,.,.,.,.,.,.,.,.,.,.,.,.,.,.,.,.,.,.,.,.,.,.,.,.,.,.,.,.,.,.,.,.,.,.,.,.,.,.,.,.,.,.,.,.,.,.,.,.,.,.,.        ,.,.,.,.,.,.,.,.,.,.,.,.,.,.,.,.",
",.g c :.0 < 2 2 t $ K >.:.;.;.>.:.:.:.X.; e 1 2 < * o.! x ,.,.,.,.,.,.,.,.,.              ,.,.,.,.,.      ,.,.,.,.                ,.,.,.,.,.,.,.          ,.,.,.          ,.          ,.,.,.          ,.,.,.,.,.,.,.                ,.,.,.,.,.,.,.          ,.        ,.,.        ,.,.,.,.,.              ,.,.,.,.",
",.k m ;.-.R & 2 2 2 9 :.;.;.;.;.:.;.:.L 2 2 2 : F -.:.^ x ,.,.,.,.,.,.,.,.              ,.,.,.,.,.,.,.,.  ,.,.,.                      ,.,.,.,.,.          ,.,.,.                        ,.              ,.,.,.,.,.                      ,.,.,.,.,.                    ,.,.        ,.,.,.                      ,.,.",
",.k m -.;.-.$.4 2 2 - -.;.;.;.;.;.;.;.u 2 2 - { :.:.:.! b ,.,.,.,.,.,.,.,.            ,.,.,.,.,.,.,.,.,.,.,.,.,.                        ,.,.,.,.          ,.,.,.                                          ,.,.,.,.                        ,.,.,.,.                    ,.,.        ,.,.                        ,.,.",
",.k B -.-.*.r = , , = ) ;.-.-.-.;.-.-.+ , , < 5 #.:.:.^ n ,.,.,.,.,.,.,.,.            ,.,.,.,.,.,.,.,.,.,.,.,.,.                        ,.,.,.,.          ,.,.,.                                          ,.,.,.,.                        ,.,.,.,.                    ,.,.,.,.,.,.,.,.                        ,.,.",
",.x B -.-.&.] ] { { | $.-.-.-.-.-.-.-.| X.{ { { #.-.-.^ n ,.,.,.,.,.,.,.,.          ,.,.,.,.,.,.,.,.,.,.,.,.,.,.  ,.,.,.,.,.,.            ,.,.,.          ,.,.,.            ,.              ,.,.            ,.,.,.  ,.,.,.,.,.,.            ,.,.,.              ,.    ,.,.,.,.,.,.,.,.          ,.,.,.,.,.    ,.,.",
",.c C *.*.-.-.-.-.-.*.-.*.-.-.-.-.-.-.-.-.-.-.-.-.-.:./ m ,.,.,.,.,.,.,.,.          ,.,.,.,.,.,.,.,.,.,.,.,.,.,.,.,.                      ,.,.,.          ,.,.,.          ,.,.,.            ,.,.            ,.,.,.,.,.                      ,.,.,.          ,.,.,.,.,.,.,.,.,.,.,.,.,.                ,.,.,.,.,.,.",
",.m Z *.*.%._ ` ` ` ' #.*.-.-.*.*.*.*.{ ] ' ' ) O.-.-./ M ,.,.,.,.,.,.,.,.            ,.,.,.,.,.,.,.,.,.,.,.,.,.                          ,.,.,.          ,.,.,.          ,.,.,.          ,.,.,.            ,.,.,.                          ,.,.,.          ,.,.,.,.,.,.,.,.,.,.,.,.,.                      ,.,.,.",
",.m Z *.*.&.A = < < = ) *.*.*.-.*.*.*.+ < < < 5 #.-.-./ B ,.,.,.,.,.,.,.,.            ,.,.,.,.,.,.,.,.,.,.,.,.                            ,.,.,.          ,.,.,.          ,.,.,.          ,.,.,.            ,.,.                            ,.,.,.          ,.,.,.,.,.,.,.,.,.,.,.,.,.                        ,.,.",
",.M Z *.*.*.@.4 2 2 3 $.*.*.*.*.*.*.*.u 2 < - ` *.*.*./ Z ,.,.,.,.,.,.,.,.            ,.,.,.,.,.,.,.,.,.,.,.,.                            ,.,.,.          ,.,.,.          ,.,.,.          ,.,.,.            ,.,.                            ,.,.,.          ,.,.,.,.,.,.,.,.,.,.,.,.,.,.,.                    ,.,.",
",.B Q &.&.U $ 2 2 2 8 &.*.*.*.*.*.*.*.J 2 2 2 : A $.*.[ Z ,.,.,.,.,.,.,.,.              ,.,.,.,.,.,.,.    ,.,.          ,.,.,.            ,.,.,.          ,.,.,.          ,.,.,.          ,.,.,.            ,.,.          ,.,.,.            ,.,.,.          ,.,.,.,.,.,.,.,.,.,.,.,.,.,.,.,.,.,.,.              ,.",
",.B ~ &.6 < 2 2 q & S *.*.&.*.*.*.*.&.[ : e 1 2 2 & [  .~ ,.,.,.,.,.,.,.,.,.                ,.,.          ,.,.          ,.,.,.            ,.,.,.          ,.,.,.          ,.,.,.          ,.,.,.            ,.,.          ,.,.,.            ,.,.,.          ,.,.,.,.,.,.,.,.,.,.,.,.,.      ,.,.,.,.            ,.",
",.Z ~ &.S < < q &.D _ *.&.*.*.&.*.*.*.&.X &.P : 2 9 *...~ ,.,.,.,.,.,.,.,.,.,.                            ,.,.                            ,.,.,.          ,.,.,.          ,.,.,.          ,.,.,.            ,.,.                            ,.,.,.          ,.,.,.,.,.,.,.,.,.,.,.,.,.                          ,.",
",.Z  .&.&.0 q &.&.&.&.&.&.&.*.*.&.*.*.&.&.*.&.I % ..*...~ ,.,.,.,.,.,.,.,.,.,.                            ,.,.                            ,.,.,.          ,.,.,.          ,.,.,.          ,.,.,.            ,.,.                            ,.,.,.          ,.,.,.,.,.,.,.,.,.,.,.,.,.                        ,.,.",
",.Z  .@.&.O.%.&.&.&.%.%.%.%.&.&.&.&.%.&.&.&.&.%.@.&.&.( / ,.,.,.,.,.,.,.,.,.,.,.,.                        ,.,.,.                          ,.,.,.          ,.,.,.          ,.,.,.          ,.,.,.            ,.,.,.                          ,.,.,.          ,.,.,.,.,.,.,.,.,.,.,.,.,.                      ,.,.,.",
",.n ~ ~ ~ ~ ~ ~ ~ ~ ~ ~ ~ ~ ~ ~ ~ ~ ~ ~ ~ ~ ~ ~ ~ ~ ~  .B ,.,.,.,.,.,.,.,.,.,.,.,.,.,.              ,.,.,.,.,.,.,.          ,.,.,.,.,.,.,.,.,.,.,.,.,.,.,.,.,.,.,.,.,.,.,.,.,.,.,.,.,.,.,.,.,.,.,.,.,.,.,.,.,.,.,.,.          ,.,.,.,.,.,.,.,.,.,.,.,.,.,.,.,.,.,.,.,.,.,.,.,.,.,.,.,.,.,.              ,.,.,.,.,.",
",.,.M n n n n n n n n n m m m m m m m m m m m m m m m m Z ,.,.,.,.,.,.,.,.,.,.,.,.,.,.,.,.,.,.,.,.,.,.,.,.,.,.,.,.,.,.,.,.,.,.,.,.,.,.,.,.,.,.,.,.,.,.,.,.,.,.,.,.,.,.,.,.,.,.,.,.,.,.,.,.,.,.,.,.,.,.,.,.,.,.,.,.,.,.,.,.,.,.,.,.,.,.,.,.,.,.,.,.,.,.,.,.,.,.,.,.,.,.,.,.,.,.,.,.,.,.,.,.,.,.,.,.,.,.,.,.,.,.,.,.",
",.,.,.,.,.,.,.,.,.,.,.,.,.,.,.,.,.,.,.,.,.,.,.,.,.,.,.,.,.,.,.,.,.,.,.,.,.,.,.,.,.,.,.,.,.,.,.,.,.,.,.,.,.,.,.,.,.,.,.,.,.,.,.,.,.,.,.,.,.,.,.,.,.,.,.,.,.,.,.,.,.,.,.,.,.,.,.,.,.,.,.,.,.,.,.,.,.,.,.,.,.,.,.,.,.,.,.,.,.,.,.,.,.,.,.,.,.,.,.,.,.,.,.,.,.,.,.,.,.,.,.,.,.,.,.,.,.,.,.,.,.,.,.,.,.,.,.,.,.,.,.,.,.",
",.,.,.,.,.,.,.,.,.,.,.,.,.,.,.,.,.,.,.,.,.,.,.,.,.,.,.,.,.,.,.,.,.,.,.,.,.,.,.,.,.,.,.,.,.,.,.,.,.,.,.,.,.,.,.,.,.,.,.,.,.,.,.,.,.,.,.,.,.,.,.,.,.,.,.,.,.,.,.,.,.,.,.,.,.,.,.,.,.,.,.,.,.,.,.,.,.,.,.,.,.,.,.,.,.,.,.,.,.,.,.,.,.,.,.,.,.,.,.,.,.,.,.,.,.,.,.,.,.,.,.,.,.,.,.,.,.,.,.,.,.,.,.,.,.,.,.,.,.,.,.,.,.",
",.,.,.,.,.,.,.,.,.,.,.,.,.,.,.,.,.,.,.,.,.,.,.,.,.,.,.,.,.,.,.,.,.,.,.,.,.,.,.,.,.,.,.,.,.,.,.,.,.,.,.,.,.,.,.,.,.,.,.,.,.,.,.,.,.,.,.,.,.,.,.,.,.,.,.,.,.,.,.,.,.,.,.,.,.,.,.,.,.,.,.,.,.,.,.,.,.,.,.,.,.,.,.,.,.,.,.,.,.,.,.,.,.,.,.,.,.,.,.,.,.,.,.,.,.,.,.,.,.,.,.,.,.,.,.,.,.,.,.,.,.,.,.,.,.,.,.,.,.,.,.,.,.",
",.,.,.,.,.,.,.,.,.,.,.,.,.,.,.,.,.,.,.,.,.,.,.,.,.,.,.,.,.,.,.,.,.,.,.,.,.,.,.,.,.,.,.,.,.,.,.,.,.,.,.,.,.,.,.,.,.,.,.,.,.,.,.,.,.,.,.,.,.,.,.,.,.,.,.,.,.,.,.,.,.,.,.,.,.,.,.,.,.,.,.,.,.,.,.,.,.,.,.,.,.,.,.,.,.,.,.,.,.,.,.,.,.,.,.,.,.,.,.,.,.,.,.,.,.,.,.,.,.,.,.,.,.,.,.,.,.,.,.,.,.,.,.,.,.,.,.,.,.,.,.,.,.",
",.,.,.,.,.,.,.,.,.,.,.,.,.,.,.,.,.,.,.,.,.,.,.,.,.,.,.,.,.,.,.,.,.,.,.,.,.,.,.,.,.,.,.,.,.,.,.,.,.,.,.,.,.,.,.,.,.,.,.,.,.,.,.,.,.,.,.,.,.,.,.,.,.,.,.,.,.,.,.,.,.,.,.,.,.,.,.,.,.,.,.,.,.,.,.,.,.,.,.,.,.,.,.,.,.,.,.,.,.,.,.,.,.,.,.,.,.,.,.,.,.,.,.,.,.,.,.,.,.,.,.,.,.,.,.,.,.,.,.,.,.,.,.,.,.,.,.,.,.,.,.,.,.",
". . . . . . . . ,.,.,.,.,.. . . . ,.,.,.,.,.,.,.,.,.,.,.,.,.,.,.,.,.,.,.,.,.,.,.,.,.,.,.,.,.,.,.,.,.,.,.,.,.,.,.,.,.,.,.,.,.,.,.,.,.,.,.,.,.,.,.,.,.,.,.,.,.,.. . . . . . . . ,.,.,.,.,.,.,.,.,.,.,.,.,.,.,.,.,.,.,.,.,.,.,.,.,.,.,.,.,.. . . . ,.,.,.,.,.,.,.,.,.,.,.,.,.,.,.,.,.,.,.,.,.,.,.,.,.,.,.,.,.,.,.,.,.",
". . . . . . . . . . . ,.,.. . . . ,.,.,.,.,.,.,.,.,.,.,.,.,.. . . . ,.,.,.,.,.,.,.,.,.,.,.,.,.,.,.,.,.,.,.,.,.,.,.,.,.,.,.,.,.,.,.,.,.,.,.,.,.,.,.,.,.,.,.,.,.. . . . . . . . . . ,.,.,.,.,.,.,.,.,.,.,.,.,.,.,.,.,.,.,.,.,.,.,.,.,.,.,.. . . . ,.,.,.,.,.,.,.,.,.,.,.,.,.,.,.,.,.,.,.,.,.,.,.,.,.,.,.,.,.,.,.,.,.",
". . . . . . . . . . . ,.,.. . . . ,.,.,.,.,.,.,.,.,.,.,.,.,.. . . . ,.,.,.,.,.,.,.,.,.,.,.,.,.,.,.,.,.,.,.,.,.,.,.,.,.,.,.,.,.,.,.,.,.,.,.,.,.,.,.,.,.,.,.,.,.. . . . . . . . . . . ,.,.,.,.,.,.,.,.,.,.,.,.,.,.,.,.,.,.,.,.,.,.,.,.,.,.. . . . ,.,.,.,.,.,.,.,.,.,.,.,.,.,.,.,.,.,.,.,.,.,.,.,.,.,.,.,.,.,.,.,.,.",
". . . . . . . . . . . . ,.,.,.,.,.,.,.,.,.,.,.. . . ,.,.,.,.. . . . ,.,.,.,.,.,.,.,.,.,.,.,.,.,.,.,.,.,.,.,.,.,.,.. . ,.,.,.,.,.. . ,.,.,.,.,.,.,.,.,.,.,.,.,.. . . . . . . . . . . ,.,.,.,.,.,.,.. . ,.,.,.,.,.,.,.,.,.. . . ,.,.,.,.,.,.,.,.,.,.,.,.,.,.,.,.,.,.,.,.,.,.,.,.,.. . ,.,.,.,.,.,.,.,.,.,.,.,.. . ,.",
". . . . . ,.,.. . . . . ,.. . . . ,.,.,.. . . . . . . . ,.. . . . . . . . . ,.. . . . ,.,.,.. . . . ,.. . . . . . . . ,.,.. . . . . . . . ,.,.,.,.,.,.,.,.,.,.. . . . . ,.,.. . . . ,.,.,.,.. . . . . . . . ,.,.,.. . . . . . . . . ,.,.. . . . ,.,.. . . . . . . . . ,.,.. . . . . . . . ,.,.,.. . . . . . . . ,.",
". . . . . ,.,.. . . . . ,.. . . . ,.,.. . . . . . . . . ,.. . . . . . . . . ,.. . . . ,.,.,.. . . . ,.. . . . . . . . ,.. . . . . . . . . . ,.,.,.,.,.,.,.,.,.. . . . . ,.,.. . . . ,.,.,.. . . . . . . . . . ,.,.. . . . . . . . . ,.,.. . . . ,.,.. . . . . . . . . ,.. . . . . . . . . . ,.,.. . . . . . . . ,.",
". . . . . ,.. . . . . . ,.. . . . ,.,.. . . . . . . . . ,.. . . . . . . . . ,.. . . . ,.,.,.. . . . ,.. . . . . . . . ,.. . . . . . . . . . ,.,.,.,.,.,.,.,.,.. . . . . . . . . . . ,.,.,.. . . . . . . . . . ,.. . . . . . . . . . ,.,.. . . . ,.,.. . . . . . . . . ,.. . . . . . . . . . ,.,.. . . . . . . . ,.",
". . . . . . . . . . . . ,.. . . . ,.. . . . . ,.,.,.,.,.,.,.. . . . ,.,.,.,.,.. . . . ,.,.,.. . . . ,.. . . . . ,.,.,.. . . . . ,.,.. . . . . ,.,.,.,.,.,.,.,.. . . . . . . . . . ,.,.,.. . . . . ,.,.. . . . . . . . . . . . ,.,.,.,.,.. . . . ,.,.,.,.,.. . . . . ,.. . . . . ,.,.. . . . . ,.. . . . . ,.,.,.,.",
". . . . . . . . . . . ,.,.. . . . ,.. . . . . ,.,.,.,.,.,.,.. . . . ,.,.,.,.,.. . . . ,.,.,.. . . . ,.. . . . ,.,.,.,.. . . . . . . . . . . . ,.,.,.,.,.,.,.,.. . . . . . . . . . ,.,.,.. . . . . . . . . . . . ,.. . . . . . . . . ,.,.. . . . ,.,.,.,.. . . . . ,.,.. . . . . . . . . . . . ,.. . . . ,.,.,.,.,.",
". . . . . . . . . ,.,.,.,.. . . . ,.. . . . . ,.,.,.,.,.,.,.. . . . ,.,.,.,.,.. . . . ,.,.,.. . . . ,.. . . . ,.,.,.,.. . . . . . . . . . . . ,.,.,.,.,.,.,.,.. . . . . . . . . . . ,.,.. . . . . . . . . . . . ,.. . . . . . . . . ,.,.. . . . ,.,.,.. . . . . ,.,.,.. . . . . . . . . . . . ,.. . . . ,.,.,.,.,.",
". . . . . ,.,.,.,.,.,.,.,.. . . . ,.. . . . . ,.,.,.,.,.,.,.. . . . ,.,.,.,.,.. . . . ,.,.. . . . . ,.. . . . ,.,.,.,.. . . . . ,.,.,.,.,.,.,.,.,.,.,.,.,.,.,.. . . . . ,.. . . . . ,.,.. . . . . ,.,.,.,.,.,.,.,.,.,.,.. . . . . . ,.,.. . . . ,.,.. . . . . . ,.,.,.. . . . . ,.,.,.,.,.,.,.,.. . . . ,.,.,.,.,.",
". . . . . ,.,.,.,.,.,.,.,.. . . . ,.,.. . . . . . . . . ,.,.. . . . . . . ,.,.. . . . . . . . . . . ,.. . . . ,.,.,.,.,.. . . . . ,.,.. . . ,.,.,.,.,.,.,.,.,.. . . . . ,.,.. . . . . ,.,.. . . . . ,.,.. . . ,.,.. . . ,.,.. . . . ,.,.. . . . ,.. . . . . . . . . . ,.. . . . . ,.,.. . . ,.,.. . . . ,.,.,.,.,.",
". . . . . ,.,.,.,.,.,.,.,.. . . . ,.,.. . . . . . . . . ,.,.. . . . . . . ,.,.. . . . . . . . . . . ,.. . . . ,.,.,.,.,.. . . . . . . . . . ,.,.,.,.,.,.,.,.,.. . . . . ,.,.. . . . . ,.,.. . . . . . . . . . ,.,.. . . . . . . . . ,.,.. . . . ,.. . . . . . . . . . ,.. . . . . . . . . . ,.,.. . . . ,.,.,.,.,.",
". . . . . ,.,.,.,.,.,.,.,.. . . . ,.,.,.. . . . . . . . ,.,.,.. . . . . . ,.,.,.. . . . . . . . . . ,.. . . . ,.,.,.,.,.,.. . . . . . . . . ,.,.,.,.,.,.,.,.,.. . . . . ,.,.,.. . . . . ,.,.. . . . . . . . . ,.,.. . . . . . . . . ,.,.. . . . ,.. . . . . . . . . . ,.,.. . . . . . . . . ,.,.. . . . ,.,.,.,.,.",
",.,.,.,.,.,.,.,.,.,.,.,.,.,.,.,.,.,.,.,.,.,.. . . . . ,.,.,.,.,.,.,.,.,.,.,.,.,.,.. . . . ,.,.,.,.,.,.,.,.,.,.,.,.,.,.,.,.,.,.. . . . . ,.,.,.,.,.,.,.,.,.,.,.,.,.,.,.,.,.,.,.,.,.,.,.,.,.,.,.,.. . . . . ,.,.,.,.,.. . . . . . ,.,.,.,.,.,.,.,.,.,.,.,.,.,.,.,.,.,.,.,.,.,.,.. . . . . ,.,.,.,.,.,.,.,.,.,.,.,.,.",
",.,.,.,.,.,.,.,.,.,.,.,.,.,.,.,.,.,.,.,.,.,.,.,.,.,.,.,.,.,.,.,.,.,.,.,.,.,.,.,.,.,.,.,.,.,.,.,.,.,.,.,.,.,.,.,.,.,.,.,.,.,.,.,.,.,.,.,.,.,.,.,.,.,.,.,.,.,.,.,.,.,.,.,.,.,.,.,.,.,.,.,.,.,.,.,.,.,.,.,.,.,.,.,.,.,.,.,.,.,.,.,.,.,.,.,.,.,.,.,.,.,.,.,.,.,.,.,.,.,.,.,.,.,.,.,.,.,.,.,.,.,.,.,.,.,.,.,.,.,.,.,.,."
};
